<?xml version="1.0" standalone="no"?>
<!DOCTYPE svg PUBLIC "-//W3C//DTD SVG 20010904//EN"
 "http://www.w3.org/TR/2001/REC-SVG-20010904/DTD/svg10.dtd">
<svg version="1.0" xmlns="http://www.w3.org/2000/svg"
 width="66.000000pt" height="66.000000pt" viewBox="0 0 66.000000 66.000000"
 preserveAspectRatio="xMidYMid meet">
<metadata>
Created by potrace 1.16, written by Peter Selinger 2001-2019
</metadata>
<g transform="translate(0.000000,66.000000) scale(0.100000,-0.100000)"
fill="#000000" stroke="none">
<path d="M180 459 c0 -35 -3 -48 -12 -43 -7 4 -8 3 -4 -4 5 -8 58 -12 172 -12
103 0 164 -4 164 -10 0 -5 6 -10 13 -10 6 1 2 9 -10 19 -18 15 -23 30 -23 65
l0 46 -150 0 -150 0 0 -51z m290 -4 l0 -45 -140 0 -140 0 0 45 0 45 140 0 140
0 0 -45z"/>
<path d="M129 323 c0 -5 0 -28 1 -52 1 -32 -2 -41 -11 -36 -8 5 -10 4 -5 -3 5
-9 70 -12 222 -12 136 0 214 -4 214 -10 0 -5 5 -10 10 -10 6 0 5 8 -2 19 -7
11 -16 17 -21 14 -5 -3 -7 17 -6 43 l3 49 -202 3 c-111 1 -202 -1 -203 -5z
m391 -48 l0 -45 -190 0 -190 0 0 45 0 45 190 0 190 0 0 -45z"/>
</g>
</svg>
